<?xml version="1.0" standalone="no"?>
<!DOCTYPE svg PUBLIC "-//W3C//DTD SVG 20010904//EN"
 "http://www.w3.org/TR/2001/REC-SVG-20010904/DTD/svg10.dtd">
<svg version="1.0" xmlns="http://www.w3.org/2000/svg"
 width="1200.000000pt" height="1200.000000pt" viewBox="0 0 1200.000000 1200.000000"
 preserveAspectRatio="xMidYMid meet">
<metadata>
Created by potrace 1.11, written by Peter Selinger 2001-2013
</metadata>
<g transform="translate(0.000000,1200.000000) scale(0.100000,-0.100000)"
fill="#000000" stroke="none">
<path d="M2 10738 l3 -1263 5995 0 5995 0 3 1263 2 1262 -6000 0 -6000 0 2
-1262z m2398 2 c0 -346 -3 -630 -7 -631 -5 -1 -275 -2 -601 -2 l-592 -2 0 633
0 632 600 0 600 0 0 -630z"/>
<path d="M0 7583 l0 -1263 6000 0 6000 0 0 1263 0 1262 -6000 0 -6000 0 0
-1262z m2388 628 c9 -1 12 -134 12 -631 l0 -630 -600 0 -600 0 0 629 0 630 33
3 c25 2 1107 1 1155 -1z"/>
<path d="M0 4426 l0 -1264 6000 0 6000 0 0 1264 0 1264 -6000 0 -6000 0 0
-1264z m2395 0 l0 -629 -585 0 c-322 1 -591 2 -597 2 -10 1 -13 134 -13 629
l0 627 598 0 597 0 0 -629z"/>
<path d="M4 2531 c-7 -8 -4 -2521 4 -2521 10 -1 11734 -1 11875 0 l117 0 0
1260 c0 1193 -1 1260 -17 1260 -128 3 -11976 4 -11979 1z m2396 -1261 l0 -630
-32 0 c-48 -1 -999 -1 -1090 0 l-78 0 0 630 0 630 368 2 c202 2 472 2 600 0
l232 -3 0 -629z"/>
</g>
</svg>
